<mxfile host="app.diagrams.net" modified="2023-09-04T03:50:57.259Z" agent="Mozilla/5.0 (Windows NT 10.0; Win64; x64) AppleWebKit/537.36 (KHTML, like Gecko) Chrome/116.0.0.0 Safari/537.36" version="21.7.1" etag="Pgt3Jmg5OA_4gAq40J54" type="github">
  <diagram name="PÃ¡gina-1" id="gQI68bFdbyjbNdYcPCis">
    <mxGraphModel>
      <root>
        <mxCell id="0" />
        <mxCell id="1" parent="0" />
      </root>
    </mxGraphModel>
  </diagram>
</mxfile>
